<svg width="49" height="34" viewBox="0 0 49 34" fill="none" xmlns="http://www.w3.org/2000/svg">
<path d="M35.3028 18.3367L18.8857 25.0388L20.1449 26.8838L36.9978 19.9934C38.0632 19.5416 38.499 18.4873 37.9179 17.659L31.0411 7.60583L28.6682 8.58479L35.3028 18.3367Z" fill="black"/>
<path d="M14.5266 26.8461L3.63029 10.6933L24.3574 2.22154L27.4084 6.70216L29.7813 5.7232L26.5367 0.941362C25.9555 0.113012 24.5995 -0.225858 23.5341 0.225969L1.98374 9.0366C0.918327 9.48843 0.482477 10.5427 1.06361 11.371L12.3957 28.1263C12.9769 28.9547 14.3328 29.2935 15.3983 28.8417L17.7712 27.8627L16.5121 26.0178L14.5266 26.8461Z" fill="black"/>
<path d="M47.964 22.9473L47.9639 22.9473L47.9686 22.9539C48.1591 23.2256 48.181 23.52 48.0748 23.7952C47.9656 24.0783 47.7093 24.362 47.3098 24.5413L25.7185 33.3489L25.7185 33.3488L25.7121 33.3515C25.2884 33.5312 24.7938 33.5575 24.342 33.4482C23.8891 33.3387 23.5228 33.1044 23.3166 32.8129L20.4169 28.5057L21.8455 27.9163L24.6203 32.057L24.8475 32.396L25.2252 32.2413L45.9039 23.7695L46.4731 23.5364L46.1285 23.0268L35.2323 6.91162L35.0049 6.57537L34.6291 6.72877L33.0661 7.36674L32.3822 6.36461L34.1855 5.62068L34.1855 5.6207L34.19 5.61878C34.6137 5.43909 35.1083 5.41279 35.5601 5.52208C36.0134 5.63172 36.3798 5.86621 36.5859 6.15801L47.964 22.9473Z" fill="#F1F2F4" stroke="#F1F2F4"/>
<path d="M27.6508 9.86498L26.6338 8.35889L12.9772 13.9314C12.1055 14.3079 11.7665 15.1363 12.2023 15.814L17.7715 24.0222L19.7087 23.2315L14.3332 15.3246L27.6508 9.86498Z" fill="#F1F2F4"/>
<path d="M18.8853 25.0388L16.4639 26.0178L17.723 27.9004L20.1444 26.9214L18.8853 25.0388Z" fill="black"/>
<path d="M28.6683 8.58472L31.0413 7.60576L29.7821 5.72314L27.4092 6.7021L28.6683 8.58472Z" fill="#3C4394"/>
</svg>
