<svg width="28" height="32" viewBox="0 0 28 32" fill="none" xmlns="http://www.w3.org/2000/svg">
<path d="M26.458 5.45829H21.4867L19.4502 2.10413C18.971 1.26558 18.0127 0.666626 16.9945 0.666626H10.945C9.92676 0.666626 8.96843 1.26558 8.48926 2.10413L6.4528 5.45829H1.54134C1.00228 5.45829 0.583008 5.93746 0.583008 6.41663V7.37496C0.583008 7.91402 1.00228 8.33329 1.54134 8.33329H2.49967L3.75749 28.638C3.81738 30.1953 5.0752 31.3333 6.63249 31.3333H21.307C22.8643 31.3333 24.1221 30.1953 24.182 28.638L25.4997 8.33329H26.458C26.9372 8.33329 27.4163 7.91402 27.4163 7.37496V6.41663C27.4163 5.93746 26.9372 5.45829 26.458 5.45829ZM10.945 3.54163H16.9945L18.1325 5.45829H9.80697L10.945 3.54163ZM21.307 28.4583H6.63249L5.37467 8.33329H22.5648L21.307 28.4583Z" fill="white"/>
</svg>
